<?xml version="1.0" encoding="utf-8"?>
<!-- Generator: Adobe Illustrator 19.2.1, SVG Export Plug-In . SVG Version: 6.00 Build 0)  -->
<svg version="1.1" id="Layer_1" xmlns="http://www.w3.org/2000/svg" xmlns:xlink="http://www.w3.org/1999/xlink" x="0px" y="0px"
	 viewBox="0 0 528.6 432.1" style="enable-background:new 0 0 528.6 432.1;" xml:space="preserve">
<style type="text/css">
	.st0{fill:none;}
	.st1{fill:#FFFFFF;}
	.st2{font-family:'LarishNeueSemibold-Regular';}
	.st3{font-size:19px;}
	.st4{letter-spacing:3;}
	.st5{font-family:'Value-Serif';}
	.st6{font-size:83.5897px;}
	.st7{letter-spacing:2;}
	.st8{letter-spacing:1;}
</style>
<rect x="150.6" y="376.1" class="st0" width="227.3" height="24.4"/>
<text transform="matrix(1 0 0 1 202.9152 390.6846)" class="st1 st2 st3 st4">EST. 1974</text>
<rect x="-5.4" y="207.4" class="st0" width="539.5" height="171.7"/>
<text transform="matrix(1 0 0 1 55.0617 267.5694)"><tspan x="0" y="0" class="st1 st5 st6 st7">Hum</tspan><tspan x="199.4" y="0" class="st1 st5 st6">bo</tspan><tspan x="304.5" y="0" class="st1 st5 st6">l</tspan><tspan x="329" y="0" class="st1 st5 st6">d</tspan><tspan x="383.3" y="0" class="st1 st5 st6 st7">t </tspan><tspan x="39" y="73.1" class="st1 st5 st6 st7">L</tspan><tspan x="93.7" y="73.1" class="st1 st5 st6 st8">e</tspan><tspan x="142.1" y="73.1" class="st1 st5 st6 st7">ge</tspan><tspan x="237.4" y="73.1" class="st1 st5 st6">n</tspan><tspan x="289.8" y="73.1" class="st1 st5 st6 st7">ds</tspan></text>
<g>
	<path class="st1" d="M264.3,193.5c-45.8,0-83.1-37.3-83.1-83.1s37.3-83.1,83.1-83.1s83.1,37.3,83.1,83.1S310.1,193.5,264.3,193.5z
		 M264.3,34.2c-42,0-76.2,34.2-76.2,76.2s34.2,76.2,76.2,76.2s76.2-34.2,76.2-76.2S306.3,34.2,264.3,34.2z"/>
</g>
<g>
	<g>
		<path class="st1" d="M335.3,152.2h-142l71-124.1L335.3,152.2z M205.2,145.3h118.1L264.3,42L205.2,145.3z"/>
	</g>
	<g>
		<rect x="260.8" y="35" class="st1" width="6.9" height="152.2"/>
	</g>
	<g>
		<rect x="215.4" y="120.3" class="st1" width="97.8" height="6.9"/>
	</g>
	<g>
		<polygon class="st1" points="264.2,129.2 230.7,95.7 235.6,90.9 264.2,119.4 292.9,90.5 297.8,95.3 		"/>
	</g>
</g>
</svg>
