<?xml version="1.0" encoding="utf-8"?>
<!-- Generator: Adobe Illustrator 19.2.1, SVG Export Plug-In . SVG Version: 6.00 Build 0)  -->
<svg version="1.1" id="Layer_1" xmlns="http://www.w3.org/2000/svg" xmlns:xlink="http://www.w3.org/1999/xlink" x="0px" y="0px"
	 viewBox="0 0 528.6 432.1" style="enable-background:new 0 0 528.6 432.1;" xml:space="preserve">
<style type="text/css">
	.st0{fill:#BF9D30;}
</style>
<g>
	<g>
		<path class="st0" d="M264.3,290.1c-45.8,0-83.1-37.3-83.1-83.1s37.3-83.1,83.1-83.1s83.1,37.3,83.1,83.1S310.1,290.1,264.3,290.1z
			 M264.3,130.7c-42,0-76.2,34.2-76.2,76.2s34.2,76.2,76.2,76.2s76.2-34.2,76.2-76.2S306.3,130.7,264.3,130.7z"/>
	</g>
	<g>
		<g>
			<path class="st0" d="M335.3,248.8h-142l71-124.1L335.3,248.8z M205.2,241.9h118.1l-59.1-103.3L205.2,241.9z"/>
		</g>
		<g>
			<rect x="260.8" y="131.5" class="st0" width="6.9" height="152.2"/>
		</g>
		<g>
			<rect x="215.4" y="216.9" class="st0" width="97.8" height="6.9"/>
		</g>
		<g>
			<polygon class="st0" points="264.2,225.8 230.7,192.3 235.6,187.4 264.2,216 292.9,187.1 297.8,191.9 			"/>
		</g>
	</g>
</g>
</svg>
