<?xml version="1.0" encoding="utf-8"?>
<!-- Generator: Adobe Illustrator 19.2.1, SVG Export Plug-In . SVG Version: 6.00 Build 0)  -->
<svg version="1.1" id="Layer_1" xmlns="http://www.w3.org/2000/svg" xmlns:xlink="http://www.w3.org/1999/xlink" x="0px" y="0px"
	 viewBox="0 0 248.7 248.7" style="enable-background:new 0 0 248.7 248.7;" xml:space="preserve">
<style type="text/css">
	.st0{fill:#B89630;}
</style>
<g>
	<g>
		<g>
			<path class="st0" d="M124.4,214.8c-49.9,0-90.4-40.6-90.4-90.4c0-49.9,40.6-90.4,90.4-90.4s90.4,40.6,90.4,90.4
				C214.8,174.2,174.2,214.8,124.4,214.8z M124.4,38.3c-47.4,0-86,38.6-86,86c0,47.4,38.6,86,86,86s86-38.6,86-86
				C210.4,76.9,171.8,38.3,124.4,38.3z"/>
		</g>
	</g>
	<g>
		<path class="st0" d="M146.3,187.2c-1.8,0-3.6-1.3-4.1-3l-1.4-4.4c-0.2-0.7-1-1.8-1.6-2.3l-8.6-6.1c-0.6-0.5-2-0.9-2.8-1l-1.8-0.1
			c-1.6-0.1-3.6-1.1-4.6-2.4l-1.8-2.4c-0.4-0.6-1.5-1.2-2.2-1.4l-4.8-0.9c-1.5-0.3-3.4-1.5-4.2-2.8l-12.6-19.2c-0.9-1.3-1.3-3.4-1-5
			l0.3-1.6c0.1-0.4-0.1-0.7-0.2-0.8c-1.2-0.5-2.6-1.9-3.4-3.1l-0.2-0.4c-0.7-1.3-1.2-3.4-1-4.9l0.3-2.5c0.1-0.5-0.3-1.2-0.7-1.4
			l-1.7-1.1c-1.1-0.7-2.6-2-3.4-3.1l-6.5-8.1c-0.9-1.1-1.7-3-1.9-4.5L74.9,92c-0.2-1.3,0-3.3,0.3-4.7l1.5-5.8c0.2-0.8,0.2-2.2-0.1-3
			l-1.9-6.2c-0.3-1-0.2-2.1,0.4-2.9c0.6-0.8,1.5-1.2,2.6-1.2l0.1,0l37.3,0.9c2,0,3.7,1.7,3.8,3.7l0.9,33.8c0,0.7,0.5,1.7,1,2.2
			l47.7,43c1,0.9,2.2,2.6,2.7,3.9l2.5,5.9c0.6,1.5,0.5,3.7-0.2,5.1l-3.2,5.9c-0.4,0.7-0.7,2.1-0.6,2.9l0.4,6c0.1,2-1.4,3.8-3.5,4
			l-20,1.5C146.5,187.2,146.4,187.2,146.3,187.2z M78.1,71.7l1.8,5.9c0.4,1.4,0.5,3.5,0.1,4.9l-1.5,5.8c-0.2,0.9-0.3,2.4-0.2,3.3
			l1.6,12.8c0.1,0.8,0.7,2.1,1.2,2.8l6.5,8.1c0.6,0.7,1.8,1.8,2.6,2.3l1.7,1.1c1.5,1,2.5,3,2.2,4.8l-0.3,2.5
			c-0.1,0.7,0.2,2.1,0.5,2.7l0.2,0.4c0.4,0.7,1.3,1.5,1.8,1.7c1.6,0.7,2.6,2.6,2.2,4.6l-0.3,1.6c-0.1,0.7,0.1,1.9,0.5,2.5l12.6,19.2
			c0.4,0.6,1.4,1.2,2,1.3l4.8,0.9c1.5,0.3,3.4,1.4,4.3,2.6l1.8,2.4c0.4,0.5,1.4,1,2,1l1.8,0.1c1.5,0.1,3.4,0.7,4.6,1.6l8.6,6.1
			c1.2,0.9,2.5,2.6,2.9,4l1.4,4.4c0.1,0.3,0.5,0.6,0.9,0.6l0,0l20-1.6c0.2,0,0.3-0.2,0.3-0.4l-0.4-6c-0.1-1.4,0.3-3.5,1-4.8l3.2-5.9
			c0.3-0.5,0.3-1.7,0.1-2.2l-2.5-5.9c-0.3-0.8-1.2-2.1-1.9-2.6l-47.7-43c-1.2-1.1-2.1-3-2.1-4.6L115.6,73c0-0.2-0.2-0.4-0.4-0.4
			L78.1,71.7z"/>
	</g>
	<path class="st0" d="M74.3,81H96v22H79.5C79.5,103,73.1,85,74.3,81z"/>
</g>
</svg>
