<?xml version="1.0" encoding="utf-8"?>
<!-- Generator: Adobe Illustrator 19.2.1, SVG Export Plug-In . SVG Version: 6.00 Build 0)  -->
<svg version="1.1" id="Layer_1" xmlns="http://www.w3.org/2000/svg" xmlns:xlink="http://www.w3.org/1999/xlink" x="0px" y="0px"
	 viewBox="0 0 248.7 248.7" style="enable-background:new 0 0 248.7 248.7;" xml:space="preserve">
<style type="text/css">
	.st0{fill:#B89630;}
</style>
<g>
	<g>
		<path class="st0" d="M124.4,214.8c-49.9,0-90.4-40.6-90.4-90.4c0-49.9,40.6-90.4,90.4-90.4s90.4,40.6,90.4,90.4
			C214.8,174.2,174.2,214.8,124.4,214.8z M124.4,38.3c-47.4,0-86,38.6-86,86c0,47.4,38.6,86,86,86s86-38.6,86-86
			C210.4,76.9,171.8,38.3,124.4,38.3z"/>
	</g>
	<g>
		<g>
			<g>
				<path class="st0" d="M146.2,146c6.5-16.9,13.1-30.4,17.5-34.6l-2.1-2.3c-4.8,4.6-11.9,18.9-18.6,36.6
					C144.1,145.7,145.1,145.8,146.2,146z"/>
			</g>
		</g>
		<g>
			<g>
				<path class="st0" d="M133.7,145.7c0.4,0,0.8-0.1,1.2-0.1c-2.2-34.5-7.6-58.4-16.3-71l-2.5,1.7c9.7,14.1,14,41.9,15.7,69.7
					C132.4,145.9,133,145.8,133.7,145.7z"/>
			</g>
		</g>
		<g>
			<g>
				<path class="st0" d="M133.7,145.7C133.7,145.7,133.7,145.7,133.7,145.7c-5.4-21.2-12.8-37.1-22.2-47.3l-2.3,2.1
					c9.9,10.8,16.7,27.5,21.4,45.8C131.6,146,132.6,145.8,133.7,145.7z"/>
			</g>
		</g>
		<g>
			<g>
				<path class="st0" d="M161,119.3L161,119.3c-1.3,0-2.1-0.2-2.3-0.2l-1-0.2v-0.8c0-0.2-1.5-6.9,7.7-11.7c2.7-1.5,5.2-2.1,7.7-2.1
					c4,0,6.1,2.1,6.3,2.3l0.8,0.8l-0.8,0.8C173.1,118.3,164.6,119.3,161,119.3z M160.6,116.2c0.2,0,0.2,0,0.4,0l0,0
					c3.3,0,9.8-1,14.8-8.4c-0.6-0.4-1.7-0.6-2.9-0.6c-1.9,0-4,0.6-6.3,1.9C161.8,111.6,160.8,114.7,160.6,116.2z"/>
			</g>
		</g>
		<g>
			<g>
				<path class="st0" d="M109.8,102.8c-13.4,0-18.6-9.4-18.8-9.6l-0.4-0.8l0.6-0.8c0-0.2,2.3-2.7,6.9-2.7c2.1,0,4.6,0.6,7.1,1.7
					c9.6,4.2,8.8,10.9,8.6,11.1l-0.2,1.3l-1-0.2C111.5,102.8,110.6,102.8,109.8,102.8z M94.5,92.8c1.7,2.3,6.7,7.3,16.1,6.9
					c-0.4-1.5-1.7-4.4-6.7-6.5c-2.1-0.8-4-1.5-5.9-1.5C96.4,91.7,95.2,92.2,94.5,92.8z"/>
			</g>
		</g>
		<g>
			<g>
				<path class="st0" d="M116.7,77.9L116.7,77.9c-2.3,0-6.7-0.8-10.5-6.9c-5.6-8.8-1-13.8-0.8-14l0.8-0.8l1,0.6
					c13.6,7.1,12.5,19.2,12.5,19.6v1l-1,0.4C118.6,77.7,117.7,77.9,116.7,77.9z M107.1,60.2c-0.6,1.5-1,4.6,1.9,9.2
					c2.9,4.8,6.1,5.4,7.7,5.4C116.5,72.1,115.2,65.2,107.1,60.2z"/>
			</g>
		</g>
		<g>
			<g>
				<path class="st0" d="M108.8,118.3L108.8,118.3c-5.4,0-9.4-3.1-10-4.8c-0.4-0.8,0-1.7,0.4-1.9l0.4-0.2c4.2-2.1,7.9-3.1,11.5-3.1
					c6.3,0,9.2,3.3,9.4,3.6l1,1.3l-1.3,0.8C116.5,116.8,112.5,118.3,108.8,118.3z M102.7,113.3c1.3,0.8,3.3,1.9,6.1,1.9
					c2.5,0,5.2-0.8,7.7-2.5c-1-0.6-2.9-1.3-5.6-1.3C108.3,111.2,105.6,111.8,102.7,113.3z"/>
			</g>
		</g>
		<g>
			<g>
				<path class="st0" d="M124.2,89.4L124.2,89.4c-1.3,0-1.9-0.8-1.9-1.7c0.4-15.9,10-18,10.5-18l1.7-0.2l0.2,1.7
					c1,7.3-1.3,11.9-3.3,14.4C128.8,88.2,125.9,89.4,124.2,89.4z M131.7,73.5c-2.1,1.3-5.4,4.4-6.3,12.5c0.8-0.4,2.3-1.3,3.3-2.7
					C130.3,81.5,132,78.4,131.7,73.5z"/>
			</g>
		</g>
		<g>
			<g>
				<path class="st0" d="M111.3,90.3L111.3,90.3c-6.1,0-10.2-3.8-10.9-5.6c-0.4-1,0-1.7,0.6-2.1l0.4-0.2c3.6-1.5,6.9-2.1,9.8-2.1
					c7.5,0,10.7,4.4,10.9,4.6l1,1.3l-1.5,0.8C118.2,89.2,114.6,90.3,111.3,90.3z M104.2,84.6c1.3,1,3.8,2.7,7.1,2.7l0,0
					c2.3,0,4.4-0.6,6.9-1.9c-1.3-0.8-3.6-2.1-6.9-2.1C109,83.4,106.7,83.8,104.2,84.6z"/>
			</g>
		</g>
		<g>
			<g>
				<path class="st0" d="M131.5,112L131.5,112c-1.3,0-1.9-0.8-1.9-1.7c1.7-15.9,11.1-17.3,11.5-17.3l1.7-0.2l0.2,1.7
					c0.6,7.1-1.9,11.3-4,13.6C136.3,111,133,112,131.5,112z M131.5,108.9v1.7V108.9L131.5,108.9z M139.9,96.5c-2.1,1-5.6,4-6.9,11.9
					c1-0.4,2.5-1.3,3.8-2.7C138.9,103.6,139.9,100.5,139.9,96.5z"/>
			</g>
		</g>
		<g>
			<g>
				<path class="st0" d="M120.9,132.5L120.9,132.5c-8.6,0-13-6.1-13.6-8.8c-0.4-1.7,0.6-2.3,0.8-2.3l0.2-0.2h0.2
					c16.1-1.3,19,7.9,19.2,8.4l0.4,1.5l-1.7,0.4C124.8,132.3,122.8,132.5,120.9,132.5z M111.1,124.3c1,1.9,4.2,5,10,5l0,0
					c1,0,2.1,0,3.1-0.2C122.8,127.3,119.2,124.1,111.1,124.3z"/>
			</g>
		</g>
		<g>
			<g>
				<path class="st0" d="M118.6,78.1L118.6,78.1h-1l-0.4-1c-4.2-15.5,4.4-20.3,4.8-20.5l1.5-0.8l0.6,1.5c3.8,8.2,1.7,13.8-0.2,16.5
					C122.3,76.1,120,78.1,118.6,78.1z M121.9,60.4c-1.7,1.7-4,5.9-2.3,13.6c0.8-0.8,1.9-2.1,2.5-4C123.4,67.1,123.2,63.9,121.9,60.4
					z"/>
			</g>
		</g>
		<g>
			<g>
				<path class="st0" d="M116.3,67.1L116.3,67.1h-0.6l-0.6-0.6c-9-13-2.5-20.5-2.1-20.7l1-1.3l1.3,1.3c7.7,7.7,5.9,15,4.8,17.8
					C119.4,64.1,118.2,67.1,116.3,67.1z M114.2,49.1c-1,2.3-1.9,6.9,2.3,13.8c0.6-1,1-2.5,1.3-4.4C117.9,55.4,116.7,52.2,114.2,49.1
					z"/>
			</g>
		</g>
		<g>
			<g>
				<path class="st0" d="M149.5,135.2l-1.3-0.8c-10-6.7-8.4-15.3-7.7-17.6c0.4-1.7,1.5-3.6,2.9-3.6h0.4l0.4,0.2l0.2,0.4
					c11.3,11.5,6.1,19.9,5.9,20.1L149.5,135.2z M143.7,117.2c-0.4,1-0.6,2.7-0.4,4.6c0.4,3.1,2.1,6.1,5.2,8.6
					C148.9,128.1,149.1,123.3,143.7,117.2z"/>
			</g>
		</g>
		<g>
			<g>
				<path class="st0" d="M118.6,113.9l-0.8-1.5c-5.4-8.2-3.8-14.2-2.1-17.1c1-2.1,3.1-4.4,4.6-4.4h0.6l0.8,0.6l0.2,0.2
					c6.3,14.6-1.5,20.7-1.7,20.9L118.6,113.9z M119.6,94.9c-0.6,0.8-1.5,2.1-2.1,4c-0.8,3.1-0.2,6.5,1.7,10
					C120.7,107,122.3,102.6,119.6,94.9z"/>
			</g>
		</g>
		<g>
			<g>
				<path class="st0" d="M152.9,124.1l-0.8-1.5c-4.8-8.2-2.9-14.2-1.3-16.9c1.3-2.1,3.1-4.2,4.6-4.2h0.8l0.6,1
					c5.6,14.8-2.3,20.5-2.7,20.7L152.9,124.1z M154.5,105.5c-0.6,0.8-1.7,2.1-2.1,4c-0.8,3.1-0.4,6.3,1.3,9.8
					C155.2,117.2,156.8,113.1,154.5,105.5z"/>
			</g>
		</g>
		<g>
			<g>
				<path class="st0" d="M152.9,137.7L152.9,137.7c-2.5,0-4.2-0.8-4.4-0.8l-1.5-0.6l0.8-1.5c4.6-8.4,10.9-9.6,14.2-9.6
					c2.3,0,5,0.6,5.9,1.9l0.4,0.8l-0.6,1.3C162.1,136,156.6,137.7,152.9,137.7z M151.6,134.4c2.5,0.4,7.3-0.2,12.5-6.1
					c-0.6-0.2-1.3-0.2-2.1-0.2C159.8,128.1,155.4,128.9,151.6,134.4z"/>
			</g>
		</g>
	</g>
	<g>
		<path class="st0" d="M174.2,163.1c0-0.2,0-1.7-0.8-3.3c-1.1-2.1-3.1-3.4-5.7-3.5c0.8-1.3,1.2-2.7,1.2-3.9c0-0.2,0-1.7-0.8-3.3
			c-1.1-2.2-3.3-3.5-6-3.5l-58.7,0c-4,0-11.3,2.3-12.1,10.7H42v2.9h50.7c0.8,0,1.5-0.7,1.5-1.5c0-9,8.8-9.2,9.2-9.2h0v0l32.1,0.1
			c0.4,0,3.9,0.1,3.9,3.9c0,1.2-0.3,2-0.9,2.7c-0.9,0.9-2.2,1.1-2.7,1.1h-1.8v0h-9.2c-0.8,0-1.4,0.6-1.5,1.4c0,0.4-0.5,9.2-9.1,9.2
			h-1.5v2.9h1.5c8.2,0,11.3-6.3,12-10.6h7.9v26.6h2.9v-5.3l15,0c3.2,0.3,3.4,3.2,3.4,3.8c0,0.7-0.2,3.9-3.9,3.9l-86.6,0l2.8,2.9
			l83.8,0c5,0,6.8-4.1,6.8-6.8c0-0.2,0-1.7-0.8-3.3c-0.1-0.2-0.2-0.3-0.3-0.5h5c5,0,6.8-4.1,6.8-6.8c0-0.2,0-1.7-0.8-3.3
			c-0.1-0.2-0.2-0.3-0.3-0.5C172.4,169.7,174.2,165.8,174.2,163.1z M162,148.5c3.7,0,3.9,3.2,3.9,3.8c0,0.6-0.2,3.9-3.9,3.9v0
			l-20.8,0c0.7-1,1-2.3,1-3.8c0-1.7-0.5-3-1.2-4H162z M162,177.6l-10.2,0c-0.2,0-0.3,0-0.5,0l-14.6,0v-7.7l25.8,0
			c3.2,0.3,3.4,3.2,3.4,3.8C165.9,174.1,165.8,177.6,162,177.6z M167.4,167h-4.9c-0.2,0-0.3,0-0.5,0v0l-25.3,0v-7.7l30.6,0
			c3.7,0,3.9,3.2,3.9,3.9C171.2,163.5,171.1,167,167.4,167z"/>
	</g>
</g>
</svg>
