<?xml version="1.0" encoding="utf-8"?>
<!-- Generator: Adobe Illustrator 19.2.1, SVG Export Plug-In . SVG Version: 6.00 Build 0)  -->
<svg version="1.1" id="Layer_1" xmlns="http://www.w3.org/2000/svg" xmlns:xlink="http://www.w3.org/1999/xlink" x="0px" y="0px"
	 viewBox="0 0 248.7 248.7" style="enable-background:new 0 0 248.7 248.7;" xml:space="preserve">
<style type="text/css">
	.st0{fill:#B89630;}
</style>
<g>
	<g>
		<path class="st0" d="M124.4,214.8c-49.9,0-90.4-40.6-90.4-90.4c0-49.9,40.6-90.4,90.4-90.4s90.4,40.6,90.4,90.4
			C214.8,174.2,174.2,214.8,124.4,214.8z M124.4,38.3c-47.4,0-86,38.6-86,86c0,47.4,38.6,86,86,86s86-38.6,86-86
			C210.4,76.9,171.8,38.3,124.4,38.3z"/>
	</g>
	<g>
		<g>
			<rect x="121.4" y="117.4" class="st0" width="4.4" height="96.5"/>
		</g>
		<g>
			<g>
				<path class="st0" d="M105.2,135.6v-4.4c8.9,0,16.2-7.3,16.2-16.2h4.4C125.8,126.4,116.6,135.6,105.2,135.6z"/>
			</g>
			<g>
				<path class="st0" d="M105.2,151.8v-4.4c8.9,0,16.2-7.3,16.2-16.2h4.4C125.8,142.6,116.6,151.8,105.2,151.8z"/>
			</g>
			<g>
				<path class="st0" d="M105.2,168.1v-4.4c8.9,0,16.2-7.3,16.2-16.2h4.4C125.8,158.9,116.6,168.1,105.2,168.1z"/>
			</g>
			<g>
				<path class="st0" d="M105.2,184.3V180c8.9,0,16.2-7.3,16.2-16.2h4.4C125.8,175.1,116.6,184.3,105.2,184.3z"/>
			</g>
		</g>
		<g>
			<g>
				<path class="st0" d="M142,135.5c-11.3,0-20.6-9.2-20.6-20.6h4.4c0,8.9,7.3,16.2,16.2,16.2V135.5z"/>
			</g>
			<g>
				<path class="st0" d="M142,151.7c-11.3,0-20.6-9.2-20.6-20.6h4.4c0,8.9,7.3,16.2,16.2,16.2V151.7z"/>
			</g>
			<g>
				<path class="st0" d="M142,168c-11.3,0-20.6-9.2-20.6-20.6h4.4c0,8.9,7.3,16.2,16.2,16.2V168z"/>
			</g>
			<g>
				<path class="st0" d="M142,184.2c-11.3,0-20.6-9.2-20.6-20.6h4.4c0,8.9,7.3,16.2,16.2,16.2V184.2z"/>
			</g>
		</g>
	</g>
	<g>
		<g>
			<rect x="81.2" y="138.7" class="st0" width="4.4" height="63.5"/>
		</g>
		<g>
			<g>
				<path class="st0" d="M71.3,151.4V147c5.5,0,9.9-4.4,9.9-9.9h4.4C85.6,145,79.2,151.4,71.3,151.4z"/>
			</g>
			<g>
				<path class="st0" d="M71.3,162.1v-4.4c5.5,0,9.9-4.4,9.9-9.9h4.4C85.6,155.7,79.2,162.1,71.3,162.1z"/>
			</g>
			<g>
				<path class="st0" d="M71.3,172.8v-4.4c5.5,0,9.9-4.4,9.9-9.9h4.4C85.6,166.4,79.2,172.8,71.3,172.8z"/>
			</g>
			<g>
				<path class="st0" d="M71.3,183.5v-4.4c5.5,0,9.9-4.4,9.9-9.9h4.4C85.6,177.1,79.2,183.5,71.3,183.5z"/>
			</g>
		</g>
		<g>
			<g>
				<path class="st0" d="M95.5,151.3c-7.9,0-14.3-6.4-14.3-14.3h4.4c0,5.5,4.4,9.9,9.9,9.9V151.3z"/>
			</g>
			<g>
				<path class="st0" d="M95.5,162c-7.9,0-14.3-6.4-14.3-14.3h4.4c0,5.5,4.4,9.9,9.9,9.9V162z"/>
			</g>
			<g>
				<path class="st0" d="M95.5,172.7c-7.9,0-14.3-6.4-14.3-14.3h4.4c0,5.5,4.4,9.9,9.9,9.9V172.7z"/>
			</g>
			<g>
				<path class="st0" d="M95.5,183.4c-7.9,0-14.3-6.4-14.3-14.3h4.4c0,5.5,4.4,9.9,9.9,9.9V183.4z"/>
			</g>
		</g>
	</g>
	<g>
		<g>
			<rect x="161.7" y="138.7" class="st0" width="4.4" height="63.5"/>
		</g>
		<g>
			<g>
				<path class="st0" d="M151.8,151.4V147c5.5,0,9.9-4.4,9.9-9.9h4.4C166,145,159.6,151.4,151.8,151.4z"/>
			</g>
			<g>
				<path class="st0" d="M151.8,162.1v-4.4c5.5,0,9.9-4.4,9.9-9.9h4.4C166,155.7,159.6,162.1,151.8,162.1z"/>
			</g>
			<g>
				<path class="st0" d="M151.8,172.8v-4.4c5.5,0,9.9-4.4,9.9-9.9h4.4C166,166.4,159.6,172.8,151.8,172.8z"/>
			</g>
			<g>
				<path class="st0" d="M151.8,183.5v-4.4c5.5,0,9.9-4.4,9.9-9.9h4.4C166,177.1,159.6,183.5,151.8,183.5z"/>
			</g>
		</g>
		<g>
			<g>
				<path class="st0" d="M175.9,151.3c-7.9,0-14.3-6.4-14.3-14.3h4.4c0,5.5,4.4,9.9,9.9,9.9V151.3z"/>
			</g>
			<g>
				<path class="st0" d="M175.9,162c-7.9,0-14.3-6.4-14.3-14.3h4.4c0,5.5,4.4,9.9,9.9,9.9V162z"/>
			</g>
			<g>
				<path class="st0" d="M175.9,172.7c-7.9,0-14.3-6.4-14.3-14.3h4.4c0,5.5,4.4,9.9,9.9,9.9V172.7z"/>
			</g>
			<g>
				<path class="st0" d="M175.9,183.4c-7.9,0-14.3-6.4-14.3-14.3h4.4c0,5.5,4.4,9.9,9.9,9.9V183.4z"/>
			</g>
		</g>
	</g>
	<g>
		<polygon class="st0" points="181.5,146.5 135.4,87.8 113,111.1 82.9,73.5 37.8,125.8 34.5,122.9 83,66.7 113.3,104.5 135.8,81.1 
			181.4,139.3 198.9,115.4 213.9,134.7 210.4,137.4 199,122.7 		"/>
	</g>
	<g>
		<path class="st0" d="M148.7,76.9c-7.4,0-13.4-6-13.4-13.4s6-13.4,13.4-13.4c7.4,0,13.4,6,13.4,13.4S156.1,76.9,148.7,76.9z
			 M148.7,54.4c-5,0-9,4-9,9s4,9,9,9c5,0,9-4,9-9S153.7,54.4,148.7,54.4z"/>
	</g>
</g>
</svg>
