<?xml version="1.0" encoding="utf-8"?>
<!-- Generator: Adobe Illustrator 19.2.1, SVG Export Plug-In . SVG Version: 6.00 Build 0)  -->
<svg version="1.1" id="Layer_1" xmlns="http://www.w3.org/2000/svg" xmlns:xlink="http://www.w3.org/1999/xlink" x="0px" y="0px"
	 viewBox="0 0 248.7 248.7" style="enable-background:new 0 0 248.7 248.7;" xml:space="preserve">
<style type="text/css">
	.st0{fill:#B89630;}
</style>
<g>
	<g>
		<path class="st0" d="M124.4,214.8c-49.9,0-90.4-40.6-90.4-90.4c0-49.9,40.6-90.4,90.4-90.4s90.4,40.6,90.4,90.4
			C214.8,174.2,174.2,214.8,124.4,214.8z M124.4,38.3c-47.4,0-86,38.6-86,86c0,47.4,38.6,86,86,86s86-38.6,86-86
			C210.4,76.9,171.8,38.3,124.4,38.3z"/>
	</g>
	<g>
		<path class="st0" d="M125,176.1c-1.1,0-2.2-0.3-3.2-0.8c-0.4-0.2-10.9-6.2-21.8-16.5c-14.8-14-23.2-29.1-24.2-43.9
			c0-0.3,0-0.6,0-0.9c0-0.3,0-0.6,0-0.8c0-15.6,12.7-28.2,28.2-28.2c8,0,15.6,3.5,21,9.4c5.3-5.9,13-9.4,21-9.4
			c15.6,0,28.2,12.7,28.2,28.2c0,0.4,0,0.8,0,1.3c0.5,15.2-7.5,30.6-23,44.6c-11.3,10.2-22.7,16.1-23.2,16.3
			C127,175.8,126,176.1,125,176.1z M104.1,89.3c-13.1,0-23.8,10.7-23.8,23.8c0,0.3,0,0.5,0,0.8l0,0.1l0,0.1c0,0.1,0,0.2,0,0.3
			c0.9,13.6,8.8,27.8,22.9,41c10.6,9.9,20.9,15.8,21,15.9c0.6,0.3,1.3,0.3,1.9,0c0.5-0.2,11.4-5.9,22.3-15.7
			c14.6-13.1,22.1-27.4,21.6-41.2l0-0.1l0-0.1c0-0.4,0-0.8,0-1.2c0-13.1-10.7-23.8-23.8-23.8c-7.5,0-14.7,3.6-19.2,9.7l-1.8,2.4
			l-1.8-2.4C118.8,93,111.6,89.3,104.1,89.3z"/>
	</g>
</g>
</svg>
